<svg xmlns="http://www.w3.org/2000/svg" viewBox="0 0 20 20"><style type="text/css"> .st0{fill:#5D5D5D;} </style><path class="st0" d="M19.2 7.5c-0.1-0.2-0.2-0.3-0.4-0.3L13 6.3l-2.6-5.2c-0.1-0.2-0.3-0.3-0.5-0.3l0 0c-0.2 0-0.4 0.1-0.5 0.3L7 6.3 1.2 7.2C1 7.2 0.8 7.4 0.8 7.5 0.7 7.7 0.8 7.9 0.9 8l4.2 4 -1 5.7c0 0.2 0 0.4 0.2 0.5 0.1 0.1 0.4 0.1 0.5 0l5.1-2.7 5.1 2.7c0.2 0.1 0.4 0.1 0.5 0 0.1-0.1 0.2-0.3 0.2-0.5l-1-5.7 4.4-4C19.2 7.9 19.3 7.7 19.2 7.5zM13.4 11.3c-0.1 0.1-0.1 0.2-0.1 0.4l0.8 4.3 -3.9-2.1c-0.1-0.1-0.3-0.1-0.4 0L5.9 16l0.8-4.3c0-0.2 0-0.3-0.1-0.4l-3.2-3 4.3-0.6c0.1 0 0.2-0.1 0.3-0.2l2-3.9 1.9 3.8c0.1 0.1 0.2 0.2 0.3 0.2l4.3 0.6L13.4 11.3z"/></svg>